<svg width="11" height="13" viewBox="0 0 11 13" fill="none" xmlns="http://www.w3.org/2000/svg">
<path d="M0.6875 6.19349H6.88174C7.61187 6.19349 8.31211 6.48353 8.8284 6.99982C9.34468 7.51611 9.63473 8.21634 9.63473 8.94648C9.63473 9.67662 9.34468 10.3769 8.8284 10.8931C8.31211 11.4094 7.61187 11.6995 6.88174 11.6995H1.37575C1.19321 11.6995 1.01816 11.627 0.889083 11.4979C0.760012 11.3688 0.6875 11.1938 0.6875 11.0112V1.37575C0.6875 1.19321 0.760012 1.01816 0.889083 0.889083C1.01816 0.760012 1.19321 0.6875 1.37575 0.6875H6.19349C6.92363 0.6875 7.62386 0.977547 8.14015 1.49383C8.65643 2.01012 8.94648 2.71035 8.94648 3.44049C8.94648 4.17063 8.65643 4.87087 8.14015 5.38715C7.62386 5.90344 6.92363 6.19349 6.19349 6.19349" stroke="black" stroke-width="1.3765" stroke-linecap="round" stroke-linejoin="round"/>
</svg>
