<svg width="13" height="13" viewBox="0 0 13 13" fill="none" xmlns="http://www.w3.org/2000/svg">
<path d="M4.92105 0.5V1.76316M7.44737 0.5V1.76316M8.71053 4.28947C8.87803 4.28947 9.03868 4.35601 9.15712 4.47446C9.27556 4.5929 9.3421 4.75355 9.3421 4.92105V9.97368C9.3421 10.6437 9.07594 11.2863 8.60216 11.7601C8.12839 12.2338 7.48581 12.5 6.81579 12.5H3.02632C2.3563 12.5 1.71372 12.2338 1.23994 11.7601C0.766165 11.2863 0.5 10.6437 0.5 9.97368V4.92105C0.5 4.75355 0.566541 4.5929 0.684985 4.47446C0.803429 4.35601 0.964074 4.28947 1.13158 4.28947H9.97368C10.6437 4.28947 11.2863 4.55564 11.7601 5.02941C12.2338 5.50319 12.5 6.14577 12.5 6.81579C12.5 7.48581 12.2338 8.12839 11.7601 8.60216C11.2863 9.07594 10.6437 9.3421 9.97368 9.3421H9.3421M2.39474 0.5V1.76316" stroke="#E96D00" stroke-linecap="round" stroke-linejoin="round"/>
</svg>
