<svg width="17" height="16" viewBox="0 0 17 16" fill="none" xmlns="http://www.w3.org/2000/svg">
<path d="M8.5 13.4287L5.324 15.275C5.07515 15.42 4.79031 15.4966 4.5 15.4966C4.20969 15.4966 3.92485 15.42 3.676 15.275L1.276 13.8786C1.03981 13.741 0.844263 13.5466 0.70831 13.3142C0.572357 13.0818 0.500604 12.8193 0.5 12.5521V10.0386C0.500604 9.77138 0.572357 9.50886 0.70831 9.27645C0.844263 9.04404 1.03981 8.84962 1.276 8.71201L4.5 6.83465M8.5 13.4287V9.16196M8.5 13.4287L11.676 15.275C11.9249 15.42 12.2097 15.4966 12.5 15.4966C12.7903 15.4966 13.0752 15.42 13.324 15.275L15.724 13.8786C15.9602 13.741 16.1557 13.5466 16.2917 13.3142C16.4276 13.0818 16.4994 12.8193 16.5 12.5521V10.0386C16.4994 9.77138 16.4276 9.50886 16.2917 9.27645C16.1557 9.04404 15.9602 8.84962 15.724 8.71201L12.5 6.83465M8.5 9.16196L4.5 6.83465M8.5 9.16196L4.5 11.4893M8.5 9.16196L12.5 6.83465M8.5 9.16196L12.5 11.4893M8.5 9.16196V4.89522M4.5 6.83465V3.44453C4.5006 3.17733 4.57236 2.91481 4.70831 2.6824C4.84426 2.44999 5.03981 2.25557 5.276 2.11796L7.676 0.721575C7.92485 0.576594 8.20969 0.5 8.5 0.5C8.79031 0.5 9.07515 0.576594 9.324 0.721575L11.724 2.11796C11.9602 2.25557 12.1557 2.44999 12.2917 2.6824C12.4276 2.91481 12.4994 3.17733 12.5 3.44453V6.83465M4.5 11.4893L0.708 9.27832M4.5 11.4893V15.5M12.5 11.4893L16.292 9.27832M12.5 11.4893V15.5M8.5 4.89522L4.708 2.68427M8.5 4.89522L12.292 2.68427" stroke="url(#paint0_linear_2443_226)" stroke-linecap="round" stroke-linejoin="round"/>
<defs>
<linearGradient id="paint0_linear_2443_226" x1="0.5" y1="4.5678" x2="16.5507" y2="4.65642" gradientUnits="userSpaceOnUse">
<stop stop-color="#E96D00"/>
<stop offset="0.390049" stop-color="#F98017"/>
<stop offset="1" stop-color="#F59745"/>
</linearGradient>
</defs>
</svg>
