<svg width="28" height="31" viewBox="0 0 28 31" fill="none" xmlns="http://www.w3.org/2000/svg">
<path d="M17.7682 29.1586V17.3448C17.7682 16.9531 17.6219 16.5775 17.3614 16.3006C17.101 16.0236 16.7477 15.8681 16.3793 15.8681H10.8238C10.4554 15.8681 10.1022 16.0236 9.84169 16.3006C9.58122 16.5775 9.4349 16.9531 9.4349 17.3448V29.1586M1.10156 12.9146C1.10147 12.485 1.18953 12.0605 1.3596 11.6708C1.52968 11.2811 1.77767 10.9355 2.08628 10.6582L11.8085 1.79929C12.3099 1.34875 12.9451 1.10156 13.6016 1.10156C14.258 1.10156 14.8932 1.34875 15.3946 1.79929L25.1168 10.6582C25.4255 10.9355 25.6734 11.2811 25.8435 11.6708C26.0136 12.0605 26.1017 12.485 26.1016 12.9146V26.2051C26.1016 26.9884 25.8089 27.7397 25.288 28.2935C24.767 28.8474 24.0605 29.1586 23.3238 29.1586H3.87934C3.14263 29.1586 2.43609 28.8474 1.91515 28.2935C1.39422 27.7397 1.10156 26.9884 1.10156 26.2051V12.9146Z" stroke="url(#paint0_linear_2845_2240)" stroke-width="2.2" stroke-linecap="round" stroke-linejoin="round"/>
<defs>
<linearGradient id="paint0_linear_2845_2240" x1="1.10156" y1="8.71025" x2="26.1811" y2="8.82592" gradientUnits="userSpaceOnUse">
<stop stop-color="#E96D00"/>
<stop offset="0.390049" stop-color="#F98017"/>
<stop offset="1" stop-color="#F59745"/>
</linearGradient>
</defs>
</svg>
