<svg width="17" height="17" viewBox="0 0 17 17" fill="none" xmlns="http://www.w3.org/2000/svg">
<path d="M15.75 10.75L13.1783 8.17833C12.8658 7.86588 12.4419 7.69036 12 7.69036C11.5581 7.69036 11.1342 7.86588 10.8217 8.17833L3.25 15.75M2.41667 0.75H14.0833C15.0038 0.75 15.75 1.49619 15.75 2.41667V14.0833C15.75 15.0038 15.0038 15.75 14.0833 15.75H2.41667C1.49619 15.75 0.75 15.0038 0.75 14.0833V2.41667C0.75 1.49619 1.49619 0.75 2.41667 0.75ZM7.41667 5.75C7.41667 6.67047 6.67047 7.41667 5.75 7.41667C4.82953 7.41667 4.08333 6.67047 4.08333 5.75C4.08333 4.82953 4.82953 4.08333 5.75 4.08333C6.67047 4.08333 7.41667 4.82953 7.41667 5.75Z" stroke="url(#paint0_linear_2443_352)" stroke-width="1.5" stroke-linecap="round" stroke-linejoin="round"/>
<defs>
<linearGradient id="paint0_linear_2443_352" x1="0.75" y1="4.8178" x2="15.7976" y2="4.89569" gradientUnits="userSpaceOnUse">
<stop stop-color="#E96D00"/>
<stop offset="0.390049" stop-color="#F98017"/>
<stop offset="1" stop-color="#F59745"/>
</linearGradient>
</defs>
</svg>
