<svg width="12" height="12" viewBox="0 0 12 12" fill="none" xmlns="http://www.w3.org/2000/svg">
<path d="M0.5 11.5C0.5 9.76316 1.57105 8.39684 3.44105 8.02632C4.84211 7.74842 6.28947 6.86842 6.86842 6.28947M5.71053 10.9211C4.69393 10.9241 3.7133 10.545 2.96314 9.85893C2.21298 9.17282 1.74808 8.22984 1.66064 7.21701C1.5732 6.20418 1.86961 5.19547 2.49109 4.39096C3.11256 3.58644 4.01371 3.04488 5.01579 2.87368C8.31579 2.23684 9.18421 1.93579 10.3421 0.5C10.9211 1.65789 11.5 2.92 11.5 5.13158C11.5 8.31579 8.73263 10.9211 5.71053 10.9211Z" stroke="#00A63E" stroke-linecap="round" stroke-linejoin="round"/>
</svg>
