<svg width="59" height="48" viewBox="0 0 59 48" fill="none" xmlns="http://www.w3.org/2000/svg">
<path d="M10.206 7.364V9.83H6.858V20H3.78V9.83H0.432V7.364H10.206ZM17.5288 7.364V20H14.4508V7.364H17.5288ZM36.7694 7.364V20H33.6914V12.422L30.8654 20H28.3814L25.5374 12.404V20H22.4594V7.364H26.0954L29.6414 16.112L33.1514 7.364H36.7694ZM44.7608 9.83V12.386H48.8828V14.762H44.7608V17.534H49.4228V20H41.6828V7.364H49.4228V9.83H44.7608Z" fill="black"/>
<path d="M6.882 37.6991V35.2151L12.57 27.0791H16.008V35.0351H17.484V37.6991H16.008V40.0391H12.93V37.6991H6.882ZM13.146 30.4631L10.122 35.0351H13.146V30.4631Z" fill="#FF7802"/>
<path d="M36.7381 27.4031V29.8691H31.5901V32.5331H35.4421V34.9271H31.5901V40.0391H28.5121V27.4031H36.7381ZM44.1338 27.4031V40.0391H41.0558V27.4031H44.1338ZM58.1544 27.4031V29.8691H54.8064V40.0391H51.7284V29.8691H48.3804V27.4031H58.1544Z" fill="black"/>
</svg>
