<svg width="14" height="13" viewBox="0 0 14 13" fill="none" xmlns="http://www.w3.org/2000/svg">
<path d="M4.59602 6.93548L2.90731 8.49745C2.70106 8.39235 2.47258 8.33 2.23768 8.31472C2.00279 8.29944 1.76712 8.3316 1.547 8.40896C1.32689 8.48632 1.12759 8.60704 0.962944 8.76274C0.798295 8.91844 0.672228 9.1054 0.593484 9.31066C0.51474 9.51592 0.485203 9.73457 0.506922 9.95144C0.52864 10.1683 0.601094 10.3782 0.71926 10.5666C0.837426 10.755 0.998476 10.9174 1.19124 11.0424C1.38401 11.1675 1.60389 11.2523 1.83562 11.291C1.88109 11.5025 1.9753 11.7025 2.11182 11.8774C2.24835 12.0523 2.42399 12.1979 2.62681 12.3043C2.82962 12.4108 3.05485 12.4756 3.28716 12.4943C3.51947 12.5131 3.75343 12.4853 3.9731 12.4129C4.19277 12.3405 4.39302 12.2252 4.5602 12.0749C4.72739 11.9245 4.8576 11.7426 4.94197 11.5415C5.02635 11.3404 5.0629 11.1249 5.04916 10.9096C5.03541 10.6943 4.97169 10.4842 4.86232 10.2937L6.54454 8.73775M9.21401 8.68969C8.24194 8.97816 7.2776 8.98515 6.46293 8.70962C5.64825 8.43409 5.02627 7.8906 4.68851 7.15914C4.35076 6.42767 4.31508 5.54687 4.58672 4.64637C4.85836 3.74586 5.42298 2.8732 6.19747 2.15684C6.97197 1.44048 7.91543 0.918237 8.88901 0.666983C9.86259 0.41573 10.8149 0.448733 11.6057 0.761135C12.3965 1.07354 12.9841 1.64884 13.282 2.40237C13.5799 3.1559 13.5723 4.04786 13.2604 4.94697C12.8092 4.70887 12.237 4.64964 11.6402 4.77926C11.0434 4.90887 10.4583 5.21941 9.98344 5.65865C9.50856 6.0979 9.17282 6.63903 9.03269 7.19105C8.89256 7.74307 8.95659 8.27229 9.21401 8.68969Z" stroke="#155DFC" stroke-linecap="round" stroke-linejoin="round"/>
</svg>
