<svg width="13" height="13" viewBox="0 0 13 13" fill="none" xmlns="http://www.w3.org/2000/svg">
<path d="M0.5 12.5L8.9 4.1M8.9 4.1H10.1C10.7365 4.1 11.347 3.84714 11.7971 3.39706C12.2471 2.94697 12.5 2.33652 12.5 1.7V0.5H11.3C10.6635 0.5 10.053 0.752856 9.60294 1.20294C9.15286 1.65303 8.9 2.26348 8.9 2.9V4.1ZM3.218 9.782C3.61004 9.38841 3.83016 8.85552 3.83016 8.3C3.83016 7.74448 3.61004 7.21159 3.218 6.818L2.3 5.9L1.382 6.818C0.989959 7.21159 0.769843 7.74448 0.769843 8.3C0.769843 8.85552 0.989959 9.38841 1.382 9.782L2.3 10.7M3.218 9.782L2.3 10.7M3.218 9.782C3.61159 9.38996 4.14448 9.16984 4.7 9.16984C5.25552 9.16984 5.78841 9.38996 6.182 9.782L7.1 10.7L6.182 11.618C5.78841 12.01 5.25552 12.2302 4.7 12.2302C4.14448 12.2302 3.61159 12.01 3.218 11.618L2.3 10.7M5.618 7.382C6.01004 6.98841 6.23016 6.45552 6.23016 5.9C6.23016 5.34448 6.01004 4.81159 5.618 4.418L4.7 3.5L3.782 4.418C3.38996 4.81159 3.16984 5.34448 3.16984 5.9C3.16984 6.45552 3.38996 6.98841 3.782 7.382L4.7 8.3M5.618 7.382L4.7 8.3M5.618 7.382C6.01159 6.98996 6.54448 6.76984 7.1 6.76984C7.65552 6.76984 8.18841 6.98996 8.582 7.382L9.5 8.3L8.582 9.218C8.18841 9.61004 7.65552 9.83016 7.1 9.83016C6.54448 9.83016 6.01159 9.61004 5.618 9.218L4.7 8.3M8.018 4.982C8.41004 4.58841 8.63016 4.05552 8.63016 3.5C8.63016 2.94448 8.41004 2.41159 8.018 2.018L7.1 1.1L6.182 2.018C5.78996 2.41159 5.56984 2.94448 5.56984 3.5C5.56984 4.05552 5.78996 4.58841 6.182 4.982L7.1 5.9M8.018 4.982L7.1 5.9M8.018 4.982C8.41159 4.58996 8.94448 4.36984 9.5 4.36984C10.0555 4.36984 10.5884 4.58996 10.982 4.982L11.9 5.9L10.982 6.818C10.5884 7.21004 10.0555 7.43016 9.5 7.43016C8.94448 7.43016 8.41159 7.21004 8.018 6.818L7.1 5.9" stroke="#00A63E" stroke-linecap="round" stroke-linejoin="round"/>
</svg>
