<svg width="9" height="13" viewBox="0 0 9 13" fill="none" xmlns="http://www.w3.org/2000/svg">
<path d="M4.5 0.5C4.88095 2.18421 5.64286 3.55263 6.78571 4.60526C7.92857 5.65789 8.5 6.81579 8.5 8.07895C8.5 9.25148 8.07857 10.376 7.32843 11.2051C6.57828 12.0342 5.56087 12.5 4.5 12.5C3.43913 12.5 2.42172 12.0342 1.67157 11.2051C0.921427 10.376 0.5 9.25148 0.5 8.07895C0.5 7.39567 0.700508 6.73083 1.07143 6.18421C1.07143 6.60297 1.22194 7.00458 1.48985 7.30069C1.75776 7.5968 2.12112 7.76316 2.5 7.76316C2.87888 7.76316 3.24224 7.5968 3.51015 7.30069C3.77806 7.00458 3.92857 6.60297 3.92857 6.18421C3.92857 4.92105 3.07143 4.28947 3.07143 3.02632C3.07143 2.18421 3.54762 1.34211 4.5 0.5Z" stroke="#BB15FC" stroke-linecap="round" stroke-linejoin="round"/>
</svg>
