<svg width="22" height="22" viewBox="0 0 22 22" fill="none" xmlns="http://www.w3.org/2000/svg">
<path d="M8.68664 16.4866H3.26064C2.96471 16.4765 2.6784 16.3789 2.43781 16.2063C2.19721 16.0337 2.01309 15.7937 1.90864 15.5166C1.29941 13.3902 1.34541 11.1295 2.04064 9.02964M16.4866 8.68664V3.26064C16.4765 2.96471 16.3789 2.6784 16.2063 2.43781C16.0337 2.19721 15.7937 2.01309 15.5166 1.90864C13.3905 1.29962 11.1302 1.34562 9.03064 2.04064M16.4866 3.48664C17.5475 3.48664 18.5649 3.80271 19.3151 4.36532C20.0652 4.92793 20.4866 5.69099 20.4866 6.48664C20.4866 7.01707 20.2759 7.52578 19.9009 7.90085C19.5258 8.27593 19.0171 8.48664 18.4866 8.48664C16.6767 8.48619 14.9006 8.97697 13.3476 9.90664M3.48664 16.4866C3.48664 17.5475 3.80271 18.5649 4.36532 19.3151C4.92793 20.0652 5.69099 20.4866 6.48664 20.4866C7.01707 20.4866 7.52578 20.2759 7.90085 19.9009C8.27593 19.5258 8.48664 19.0171 8.48664 18.4866C8.48601 16.6764 8.97679 14.8999 9.90664 13.3466M7.19564 1.04064C5.77216 1.53636 4.47916 2.34747 3.41331 3.41331C2.34747 4.47916 1.53636 5.77216 1.04064 7.19564C0.967523 7.50333 0.993525 7.82625 1.11493 8.11828C1.23634 8.4103 1.44694 8.65648 1.71664 8.82164L11.5236 14.2416C11.9034 14.4516 12.3411 14.5323 12.7708 14.4717C13.2004 14.4111 13.5987 14.2124 13.9056 13.9056C14.2124 13.5987 14.4111 13.2004 14.4717 12.7708C14.5323 12.3411 14.4516 11.9034 14.2416 11.5236L8.82164 1.71664C8.65648 1.44694 8.4103 1.23634 8.11828 1.11493C7.82625 0.993525 7.50333 0.967523 7.19564 1.04064Z" stroke="url(#paint0_linear_2845_2305)" stroke-width="2" stroke-linecap="round" stroke-linejoin="round"/>
<defs>
<linearGradient id="paint0_linear_2845_2305" x1="1" y1="6.28451" x2="20.5485" y2="6.3857" gradientUnits="userSpaceOnUse">
<stop stop-color="#E96D00"/>
<stop offset="0.390049" stop-color="#F98017"/>
<stop offset="1" stop-color="#F59745"/>
</linearGradient>
</defs>
</svg>
