<svg width="20" height="20" viewBox="0 0 20 20" fill="none" xmlns="http://www.w3.org/2000/svg">
<path d="M18.9869 10.4727C18.8932 12.2089 18.2986 13.8807 17.275 15.2861C16.2514 16.6916 14.8426 17.7704 13.2189 18.3923C11.5953 19.0141 9.82624 19.1523 8.12569 18.7903C6.42514 18.4282 4.86587 17.5813 3.63638 16.3519C2.40688 15.1225 1.5598 13.5633 1.19753 11.8628C0.835263 10.1623 0.973312 8.39327 1.59499 6.76954C2.21668 5.14581 3.29537 3.73692 4.70069 2.71316C6.10601 1.68941 7.77778 1.09463 9.51392 1.00073C9.91892 0.978727 10.1309 1.46073 9.91592 1.80373C9.19681 2.95428 8.88889 4.3146 9.04241 5.66268C9.19594 7.01076 9.80184 8.26701 10.7612 9.22641C11.7206 10.1858 12.9769 10.7917 14.325 10.9452C15.673 11.0988 17.0334 10.7908 18.1839 10.0717C18.5279 9.85673 19.0089 10.0677 18.9869 10.4727Z" stroke="url(#paint0_linear_2845_2350)" stroke-width="2" stroke-linecap="round" stroke-linejoin="round"/>
<defs>
<linearGradient id="paint0_linear_2845_2350" x1="1" y1="5.87799" x2="19.0448" y2="5.9714" gradientUnits="userSpaceOnUse">
<stop stop-color="#E96D00"/>
<stop offset="0.390049" stop-color="#F98017"/>
<stop offset="1" stop-color="#F59745"/>
</linearGradient>
</defs>
</svg>
