<svg width="20" height="19" viewBox="0 0 20 19" fill="none" xmlns="http://www.w3.org/2000/svg">
<path d="M6.85 6.525V6.5335M13.6 12.475V12.4835M10 9.5V9.5085M9.1 13.75V13.7585M5.5 11.2V11.2085M10 1C8.21997 1 6.47991 1.49852 4.99987 2.43251C3.51983 3.3665 2.36628 4.69402 1.68509 6.24719C1.0039 7.80036 0.82567 9.50943 1.17294 11.1583C1.5202 12.8071 2.37737 14.3217 3.63604 15.5104C4.89472 16.6992 6.49836 17.5087 8.24419 17.8367C9.99002 18.1646 11.7996 17.9963 13.4442 17.353C15.0887 16.7096 16.4943 15.6202 17.4832 14.2223C18.4722 12.8245 19 11.1811 19 9.5C18.3745 9.6819 17.7083 9.69931 17.0732 9.55038C16.438 9.40144 15.8578 9.09179 15.395 8.65472C14.9322 8.21765 14.6044 7.66969 14.4467 7.06979C14.289 6.46989 14.3074 5.84074 14.5 5.25C13.8745 5.4319 13.2083 5.44932 12.5732 5.30038C11.938 5.15144 11.3578 4.84179 10.895 4.40472C10.4322 3.96765 10.1044 3.4197 9.94666 2.81979C9.78896 2.21989 9.8074 1.59074 10 1Z" stroke="url(#paint0_linear_2845_2335)" stroke-width="2" stroke-linecap="round" stroke-linejoin="round"/>
<defs>
<linearGradient id="paint0_linear_2845_2335" x1="1" y1="5.61017" x2="19.0571" y2="5.70914" gradientUnits="userSpaceOnUse">
<stop stop-color="#E96D00"/>
<stop offset="0.390049" stop-color="#F98017"/>
<stop offset="1" stop-color="#F59745"/>
</linearGradient>
</defs>
</svg>
