<svg width="22" height="22" viewBox="0 0 22 22" fill="none" xmlns="http://www.w3.org/2000/svg">
<path d="M1 11.0005H21M19 11.0005V19.0005C19 19.531 18.7893 20.0397 18.4142 20.4147C18.0391 20.7898 17.5304 21.0005 17 21.0005H5C4.46957 21.0005 3.96086 20.7898 3.58579 20.4147C3.21071 20.0397 3 19.531 3 19.0005V11.0005M3 7.00053L19 3.00053M7.86 5.78053L7.41 3.97053C7.34553 3.71576 7.33189 3.45079 7.36988 3.19075C7.40787 2.93071 7.49674 2.68071 7.6314 2.45503C7.76606 2.22935 7.94388 2.03243 8.15469 1.87551C8.3655 1.7186 8.60517 1.60477 8.86 1.54053L10.8 1.06053C11.0554 0.996216 11.3211 0.982994 11.5816 1.02162C11.8422 1.06025 12.0926 1.14998 12.3184 1.28564C12.5441 1.4213 12.7409 1.60023 12.8974 1.81214C13.0538 2.02406 13.1669 2.2648 13.23 2.52053L13.68 4.32053" stroke="url(#paint0_linear_2845_2320)" stroke-width="2" stroke-linecap="round" stroke-linejoin="round"/>
<defs>
<linearGradient id="paint0_linear_2845_2320" x1="1" y1="6.42387" x2="21.0635" y2="6.52773" gradientUnits="userSpaceOnUse">
<stop stop-color="#E96D00"/>
<stop offset="0.390049" stop-color="#F98017"/>
<stop offset="1" stop-color="#F59745"/>
</linearGradient>
</defs>
</svg>
