<svg width="16" height="16" viewBox="0 0 16 16" fill="none" xmlns="http://www.w3.org/2000/svg">
<path d="M10.6282 0.757812C10.2254 0.757813 9.83921 0.917799 9.55443 1.20258C9.26965 1.48735 9.10966 1.87359 9.10966 2.27633V6.83189C9.10966 7.23462 9.26965 7.62086 9.55443 7.90564C9.83921 8.19042 10.2254 8.35041 10.6282 8.35041C10.8296 8.35041 11.0227 8.4304 11.1651 8.57279C11.3074 8.71518 11.3874 8.9083 11.3874 9.10966V9.86892C11.3874 10.2717 11.2275 10.6579 10.9427 10.9427C10.6579 11.2275 10.2717 11.3874 9.86892 11.3874C9.66756 11.3874 9.47444 11.4674 9.33205 11.6098C9.18966 11.7522 9.10966 11.9453 9.10966 12.1467V13.6652C9.10966 13.8666 9.18966 14.0597 9.33205 14.2021C9.47444 14.3445 9.66756 14.4245 9.86892 14.4245C11.0771 14.4245 12.2359 13.9445 13.0902 13.0902C13.9445 12.2359 14.4245 11.0771 14.4245 9.86892V2.27633C14.4245 1.87359 14.2645 1.48735 13.9797 1.20258C13.6949 0.917799 13.3087 0.757813 12.906 0.757812H10.6282Z" stroke="black" stroke-width="1.51852" stroke-linecap="round" stroke-linejoin="round"/>
<path d="M2.27633 0.757812C1.87359 0.757813 1.48735 0.917799 1.20258 1.20258C0.917799 1.48735 0.757813 1.87359 0.757812 2.27633V6.83189C0.757813 7.23462 0.917799 7.62086 1.20258 7.90564C1.48735 8.19042 1.87359 8.35041 2.27633 8.35041C2.4777 8.35041 2.67082 8.4304 2.81321 8.57279C2.9556 8.71518 3.03559 8.9083 3.03559 9.10966V9.86892C3.03559 10.2717 2.8756 10.6579 2.59083 10.9427C2.30605 11.2275 1.91981 11.3874 1.51707 11.3874C1.3157 11.3874 1.12258 11.4674 0.980194 11.6098C0.837806 11.7522 0.757813 11.9453 0.757812 12.1467V13.6652C0.757813 13.8666 0.837806 14.0597 0.980194 14.2021C1.12258 14.3445 1.3157 14.4245 1.51707 14.4245C2.72528 14.4245 3.884 13.9445 4.73834 13.0902C5.59267 12.2359 6.07263 11.0771 6.07263 9.86892V2.27633C6.07263 1.87359 5.91264 1.48735 5.62786 1.20258C5.34309 0.917799 4.95685 0.757813 4.55411 0.757812H2.27633Z" stroke="black" stroke-width="1.51852" stroke-linecap="round" stroke-linejoin="round"/>
</svg>
