<svg width="23" height="23" viewBox="0 0 23 23" fill="none" xmlns="http://www.w3.org/2000/svg">
<path d="M1.57105 20.5711L2.97105 19.1711M19.1711 2.97105L20.5711 1.57105M8.67105 13.4711L13.4711 8.67105M16.6671 11.8391C17.0422 12.2142 17.551 12.425 18.0816 12.425C18.6121 12.425 19.1209 12.2142 19.496 11.8391C19.8712 11.4639 20.082 10.9551 20.082 10.4246C20.082 9.89401 19.8712 9.3852 19.496 9.01005L17.7281 7.24305C18.1032 7.61807 18.612 7.8287 19.1424 7.8286C19.4051 7.82856 19.6651 7.77678 19.9078 7.67622C20.1504 7.57567 20.3709 7.42831 20.5566 7.24255C20.7422 7.0568 20.8895 6.83629 20.99 6.59361C21.0905 6.35094 21.1421 6.09085 21.1421 5.8282C21.1421 5.56555 21.0903 5.30548 20.9897 5.06284C20.8892 4.8202 20.7418 4.59974 20.5561 4.41405L17.7281 1.58605C17.353 1.2109 16.8444 1.00009 16.3139 1C15.7835 0.999906 15.2747 1.21054 14.8996 1.58555C14.5244 1.96057 14.3136 2.46925 14.3135 2.9997C14.3134 3.53014 14.524 4.0389 14.8991 4.41405L13.1321 2.64605C12.9463 2.4603 12.7258 2.31295 12.4831 2.21242C12.2404 2.11189 11.9802 2.06015 11.7176 2.06015C11.4549 2.06015 11.1947 2.11189 10.952 2.21242C10.7093 2.31295 10.4888 2.4603 10.3031 2.64605C10.1173 2.83181 9.96995 3.05233 9.86942 3.29503C9.76889 3.53773 9.71715 3.79785 9.71715 4.06055C9.71715 4.32325 9.76889 4.58337 9.86942 4.82607C9.96995 5.06877 10.1173 5.2893 10.3031 5.47505L16.6671 11.8391ZM4.41405 20.5561C4.78907 20.9312 5.29775 21.142 5.8282 21.1421C6.09085 21.1421 6.35094 21.0905 6.59361 20.99C6.83629 20.8895 7.0568 20.7422 7.24255 20.5566C7.42831 20.3709 7.57567 20.1504 7.67622 19.9078C7.77678 19.6651 7.82856 19.4051 7.8286 19.1424C7.82865 18.8798 7.77696 18.6197 7.67649 18.377C7.57602 18.1343 7.42874 17.9138 7.24305 17.7281L9.01005 19.496C9.3852 19.8712 9.89401 20.082 10.4246 20.082C10.9551 20.082 11.4639 19.8712 11.8391 19.496C12.2142 19.1209 12.425 18.6121 12.425 18.0816C12.425 17.551 12.2142 17.0422 11.8391 16.6671L5.47505 10.3031C5.2893 10.1173 5.06877 9.96995 4.82607 9.86942C4.58337 9.76889 4.32325 9.71715 4.06055 9.71715C3.79785 9.71715 3.53773 9.76889 3.29503 9.86942C3.05233 9.96995 2.83181 10.1173 2.64605 10.3031C2.4603 10.4888 2.31295 10.7093 2.21242 10.952C2.11189 11.1947 2.06015 11.4549 2.06015 11.7176C2.06015 11.9802 2.11189 12.2404 2.21242 12.4831C2.31295 12.7258 2.4603 12.9463 2.64605 13.1321L4.41405 14.8991C4.0389 14.524 3.53014 14.3134 2.9997 14.3135C2.46925 14.3136 1.96057 14.5244 1.58555 14.8996C1.21054 15.2747 0.999906 15.7835 1 16.3139C1.00009 16.8444 1.2109 17.353 1.58605 17.7281L4.41405 20.5561Z" stroke="url(#paint0_linear_2845_2261)" stroke-width="2" stroke-linecap="round" stroke-linejoin="round"/>
<defs>
<linearGradient id="paint0_linear_2845_2261" x1="1" y1="6.46227" x2="21.2061" y2="6.56686" gradientUnits="userSpaceOnUse">
<stop stop-color="#E96D00"/>
<stop offset="0.390049" stop-color="#F98017"/>
<stop offset="1" stop-color="#F59745"/>
</linearGradient>
</defs>
</svg>
