<svg width="22" height="21" viewBox="0 0 22 21" fill="none" xmlns="http://www.w3.org/2000/svg">
<path d="M1 19C1.00012 17.741 1.29739 16.4997 1.86766 15.3772C2.43792 14.2548 3.26506 13.2827 4.28182 12.5402C5.29858 11.7976 6.47624 11.3056 7.71904 11.104C8.96183 10.9024 10.2347 10.9969 11.434 11.38M21 20L19.1 18.1M14 6C14 8.76142 11.7614 11 9 11C6.23858 11 4 8.76142 4 6C4 3.23858 6.23858 1 9 1C11.7614 1 14 3.23858 14 6ZM20 16C20 17.6569 18.6569 19 17 19C15.3431 19 14 17.6569 14 16C14 14.3431 15.3431 13 17 13C18.6569 13 20 14.3431 20 16Z" stroke="#747474" stroke-width="2" stroke-linecap="round" stroke-linejoin="round"/>
</svg>
