<svg width="17" height="17" viewBox="0 0 17 17" fill="none" xmlns="http://www.w3.org/2000/svg">
<path d="M7.85664 1.53672H2.32925C1.91041 1.53672 1.50872 1.70311 1.21255 1.99927C0.916385 2.29544 0.75 2.69713 0.75 3.11597V14.1707C0.75 14.5896 0.916385 14.9913 1.21255 15.2874C1.50872 15.5836 1.91041 15.75 2.32925 15.75H13.384C13.8029 15.75 14.2046 15.5836 14.5007 15.2874C14.7969 14.9913 14.9633 14.5896 14.9633 14.1707V8.64336M12.8905 1.24061C13.2046 0.926478 13.6307 0.75 14.0749 0.75C14.5192 0.75 14.9453 0.926478 15.2594 1.24061C15.5735 1.55474 15.75 1.9808 15.75 2.42505C15.75 2.8693 15.5735 3.29536 15.2594 3.60949L8.14248 10.7272C7.95499 10.9145 7.72335 11.0517 7.46893 11.1259L5.20034 11.7892C5.13239 11.8091 5.06037 11.8102 4.9918 11.7927C4.92324 11.7751 4.86066 11.7394 4.81061 11.6894C4.76057 11.6393 4.72489 11.5768 4.70733 11.5082C4.68976 11.4396 4.69095 11.3676 4.71077 11.2997L5.37405 9.03107C5.44869 8.77685 5.5861 8.54549 5.7736 8.35831L12.8905 1.24061Z" stroke="white" stroke-width="1.5" stroke-linecap="round" stroke-linejoin="round"/>
</svg>
