<svg width="20" height="21" viewBox="0 0 20 21" fill="none" xmlns="http://www.w3.org/2000/svg">
<path d="M7.75 9.3V15M11.75 9.3V15M16.75 4.55V17.85C16.75 18.3539 16.5393 18.8372 16.1642 19.1935C15.7891 19.5498 15.2804 19.75 14.75 19.75H4.75C4.21957 19.75 3.71086 19.5498 3.33579 19.1935C2.96071 18.8372 2.75 18.3539 2.75 17.85V4.55M0.75 4.55H18.75M5.75 4.55V2.65C5.75 2.14609 5.96071 1.66282 6.33579 1.3065C6.71086 0.950178 7.21957 0.75 7.75 0.75H11.75C12.2804 0.75 12.7891 0.950178 13.1642 1.3065C13.5393 1.66282 13.75 2.14609 13.75 2.65V4.55" stroke="white" stroke-width="1.5" stroke-linecap="round" stroke-linejoin="round"/>
</svg>
